<?xml version='1.0' encoding='utf-8'?>
<!DOCTYPE svg PUBLIC '-//W3C//DTD SVG 1.1//EN' 'http://www.w3.org/Graphics/SVG/1.1/DTD/svg11.dtd'>
<!-- Uploaded to: SVG Repo, www.svgrepo.com, Generator: SVG Repo Mixer Tools -->
<svg fill="#000000" height="800px" width="800px" version="1.1" xmlns="http://www.w3.org/2000/svg" viewBox="0 0 512 512" xmlns:xlink="http://www.w3.org/1999/xlink" enable-background="new 0 0 512 512">
  <g>
    <g>
      <g>
        <path d="M440.7,501H71.2C38,501,11,474,11,440.8V71.2C11,38,38,11,71.2,11h369.5C474,11,501,38,501,71.2v369.5     C501,474,474,501,440.7,501z M71.2,51.8c-10.7,0-19.4,8.7-19.4,19.4v369.5c0,10.7,8.7,19.4,19.4,19.4h369.5     c10.7,0,19.4-8.7,19.4-19.4V71.2c0-10.7-8.7-19.4-19.4-19.4H71.2z"/>
      </g>
      <g>
        <g>
          <path d="m182.4,385.5c-11.3,0-20.4-9.1-20.4-20.4v-218.2c0-11.3 9.1-20.4 20.4-20.4 11.3,0 20.4,9.1 20.4,20.4v218.2c0,11.3-9.1,20.4-20.4,20.4z"/>
        </g>
        <g>
          <path d="m329.6,385.5c-11.3,0-20.4-9.1-20.4-20.4v-218.2c0-11.3 9.1-20.4 20.4-20.4s20.4,9.1 20.4,20.4v218.2c0,11.3-9.2,20.4-20.4,20.4z"/>
        </g>
      </g>
    </g>
  </g>
</svg>